<svg width="15" height="33" viewBox="0 0 15 33" fill="none" xmlns="http://www.w3.org/2000/svg">
<path d="M10.327 5.85235L7.74655 0.317658C7.6028 0.00853472 7.16465 0.00853472 7.02091 0.317658L0.5594 14.1726C-0.0692588 15.522 -0.0692588 17.0798 0.5594 18.4292L2.72074 23.0642C2.86448 23.3734 3.30264 23.3734 3.44638 23.0642L10.327 8.31144C10.6907 7.53342 10.6907 6.6321 10.327 5.85235Z" fill="black"/>
<path d="M11.3193 9.53751L4.43866 24.2904C4.07497 25.0701 4.07497 25.9714 4.43866 26.7494L7.01911 32.2841C7.16285 32.5932 7.60101 32.5932 7.74475 32.2841L14.2062 18.4292C14.8349 17.0798 14.8349 15.5219 14.2062 14.1727L12.0449 9.53751C11.9011 9.22838 11.463 9.22838 11.3193 9.53751Z" fill="black"/>
</svg>
