<svg width="14" height="17" viewBox="0 0 14 17" fill="none" xmlns="http://www.w3.org/2000/svg">
<path d="M6.91627 5.33333C8.38903 5.33333 9.58294 4.13943 9.58294 2.66667C9.58294 1.19391 8.38903 0 6.91627 0C5.44351 0 4.2496 1.19391 4.2496 2.66667C4.2496 4.13943 5.44351 5.33333 6.91627 5.33333Z" fill="#232931"/>
<path d="M5.98602 5.30055V10.3273C5.98602 10.856 6.37477 11.287 6.85424 11.287C7.33371 11.287 7.72246 10.8572 7.72246 10.3273V5.30055C7.72246 4.74058 7.28994 4.29935 6.78461 4.34449C6.3318 4.38434 5.98602 4.80077 5.98602 5.30055Z" fill="#232931"/>
<path d="M4.46367 10.3545H9.13554V8.96888C9.13608 8.76107 9.21945 8.56195 9.36736 8.4152C9.51528 8.26845 9.71567 8.18603 9.92459 8.18604C10.13 8.18604 10.327 8.2672 10.4722 8.41167C10.6175 8.55613 10.699 8.75208 10.699 8.95639V13.7026C10.6986 13.9173 10.6126 14.1231 10.4598 14.2748C10.307 14.4264 10.0999 14.5116 9.88408 14.5116C9.78367 14.5117 9.68425 14.492 9.59154 14.4536C9.49883 14.4152 9.41467 14.359 9.34391 14.2881C9.27316 14.2173 9.21721 14.1332 9.17929 14.0407C9.14137 13.9482 9.12224 13.8492 9.12299 13.7493L9.13554 11.9983L7.71583 12.0136V13.6426C7.71578 13.7569 7.69307 13.8701 7.64899 13.9756C7.60491 14.0812 7.54033 14.1771 7.45896 14.2578C7.37758 14.3385 7.281 14.4025 7.17474 14.446C7.06848 14.4896 6.95463 14.5119 6.83971 14.5116C6.60314 14.5116 6.37623 14.4183 6.20873 14.2521C6.04123 14.086 5.9468 13.8605 5.94616 13.6252V12.018L4.46367 12.0362V13.7816C4.46313 13.9754 4.38536 14.1611 4.24739 14.2979C4.10943 14.4348 3.92253 14.5116 3.72769 14.5116H3.67706C3.58934 14.5116 3.50249 14.4944 3.42145 14.461C3.34041 14.4277 3.26678 14.3787 3.20476 14.317C3.14274 14.2553 3.09354 14.1821 3.05997 14.1015C3.0264 14.0209 3.00912 13.9345 3.00912 13.8472V8.94027C3.00955 8.74009 3.0898 8.54825 3.23226 8.40685C3.37472 8.26545 3.56775 8.18603 3.769 8.18604C3.86104 8.18603 3.95217 8.2041 4.03717 8.23919C4.12217 8.27429 4.19938 8.32572 4.26436 8.39055C4.32934 8.45537 4.38083 8.53232 4.41586 8.61697C4.4509 8.70162 4.4688 8.79232 4.46853 8.88386L4.46367 10.3545Z" stroke="#232931" stroke-width="0.7" stroke-miterlimit="10"/>
<path d="M11.284 6.57373H2.6723C1.89932 6.57373 1.27271 7.19914 1.27271 7.97062V14.6032C1.27271 15.3747 1.89932 16.0001 2.6723 16.0001H11.284C12.0569 16.0001 12.6836 15.3747 12.6836 14.6032V7.97062C12.6836 7.19914 12.0569 6.57373 11.284 6.57373Z" stroke="#232931" stroke-width="0.7" stroke-miterlimit="10"/>
<path d="M5.3651 1.98444C5.3651 1.98444 5.37963 1.62089 5.48913 1.4263C5.66041 1.1219 6.23331 0.930176 6.23331 0.930176" stroke="white" stroke-width="0.7" stroke-linecap="round"/>
</svg>
