<svg width="27" height="28" viewBox="0 0 27 28" fill="none" xmlns="http://www.w3.org/2000/svg">
<path d="M22.5 13.9907V25.2407H4.5V13.9907" stroke="black" stroke-linecap="round" stroke-linejoin="round"/>
<path d="M24.75 8.36572H2.25V13.9907H24.75V8.36572Z" stroke="black" stroke-linecap="round" stroke-linejoin="round"/>
<path d="M13.5 25.2407V8.36572" stroke="black" stroke-linecap="round" stroke-linejoin="round"/>
<path d="M13.5 8.36572H18.5625C19.3084 8.36572 20.0238 8.06941 20.5512 7.54196C21.0787 7.01451 21.375 6.29914 21.375 5.55322C21.375 4.8073 21.0787 4.09193 20.5512 3.56448C20.0238 3.03704 19.3084 2.74072 18.5625 2.74072C14.625 2.74072 13.5 8.36572 13.5 8.36572Z" stroke="black" stroke-linecap="round" stroke-linejoin="round"/>
<path d="M13.5 8.36572H8.4375C7.69158 8.36572 6.97621 8.06941 6.44876 7.54196C5.92132 7.01451 5.625 6.29914 5.625 5.55322C5.625 4.8073 5.92132 4.09193 6.44876 3.56448C6.97621 3.03704 7.69158 2.74072 8.4375 2.74072C12.375 2.74072 13.5 8.36572 13.5 8.36572Z" stroke="black" stroke-linecap="round" stroke-linejoin="round"/>
</svg>
