<svg width="93" height="33" viewBox="0 0 93 33" fill="none" xmlns="http://www.w3.org/2000/svg">
<mask id="mask0_230_510" style="mask-type:luminance" maskUnits="userSpaceOnUse" x="0" y="0" width="93" height="33">
<path d="M93 0H0V32.6489H93V0Z" fill="white"/>
</mask>
<g mask="url(#mask0_230_510)">
<path d="M10.327 5.85235L7.74655 0.317658C7.6028 0.00853472 7.16465 0.00853472 7.02091 0.317658L0.5594 14.1726C-0.0692588 15.522 -0.0692588 17.0798 0.5594 18.4292L2.72074 23.0642C2.86448 23.3734 3.30264 23.3734 3.44638 23.0642L10.327 8.31144C10.6907 7.53342 10.6907 6.6321 10.327 5.85235Z" fill="black"/>
<path d="M11.3193 9.53751L4.43866 24.2904C4.07497 25.0701 4.07497 25.9714 4.43866 26.7494L7.01911 32.2841C7.16285 32.5932 7.60101 32.5932 7.74475 32.2841L14.2062 18.4292C14.8349 17.0798 14.8349 15.5219 14.2062 14.1727L12.0449 9.53751C11.9011 9.22838 11.463 9.22838 11.3193 9.53751Z" fill="black"/>
<path d="M75.1189 21.7062L69.144 10.8972L63.1692 21.7062H65.8258L69.144 15.6175L72.5368 21.7062H75.1189Z" fill="black"/>
<path d="M49.9275 10.8972L55.9024 21.7062L61.8772 10.8972H59.2206L55.9024 16.9859L52.5097 10.8972H49.9275Z" fill="black"/>
<path d="M44.4685 10.8972H42.1566V21.7062H44.4685V10.8972Z" fill="black"/>
<path d="M27.5971 15.7563H25.285V21.7062H37.2867V19.5457L27.5971 19.5475V15.7563Z" fill="black"/>
<path d="M83.5201 10.8972H83.1581H80.8219V21.7062H83.1581V13.9781L90.1202 21.7062H90.5601H92.8963L83.5201 10.8972Z" fill="black"/>
<path d="M26.4419 13.2139C27.0798 13.2139 27.597 12.6954 27.597 12.0556C27.597 11.4158 27.0798 10.8972 26.4419 10.8972C25.8038 10.8972 25.2867 11.4158 25.2867 12.0556C25.2867 12.6954 25.8038 13.2139 26.4419 13.2139Z" fill="black"/>
<path d="M91.7411 13.2139C92.3791 13.2139 92.8963 12.6954 92.8963 12.0556C92.8963 11.4158 92.3791 10.8972 91.7411 10.8972C91.1032 10.8972 90.586 11.4158 90.586 12.0556C90.586 12.6954 91.1032 13.2139 91.7411 13.2139Z" fill="black"/>
</g>
</svg>
