<svg width="170" height="60" viewBox="0 0 170 60" fill="none" xmlns="http://www.w3.org/2000/svg">
<path d="M18.7167 10.9003L13.9997 0.783172C13.7369 0.218109 12.936 0.218109 12.6732 0.783172L0.861871 26.1095C-0.28729 28.5761 -0.28729 31.4236 0.861871 33.8902L4.81271 42.3629C5.07546 42.9281 5.8764 42.9281 6.13916 42.3629L18.7167 15.3955C19.3815 13.9733 19.3815 12.3257 18.7167 10.9003Z" fill="#222222"/>
<path d="M20.5304 17.6367L7.95295 44.6043C7.28814 46.0296 7.28814 47.6771 7.95295 49.0993L12.6699 59.2165C12.9326 59.7815 13.7336 59.7815 13.9963 59.2165L25.8077 33.8903C26.9568 31.4237 26.9568 28.576 25.8077 26.1095L21.8568 17.6367C21.594 17.0716 20.7932 17.0716 20.5304 17.6367Z" fill="#222222"/>
<path d="M137.153 39.8804L126.232 20.1221L115.31 39.8804H120.166L126.232 28.7505L132.433 39.8804H137.153Z" fill="#222222"/>
<path d="M91.1047 20.1221L102.027 39.8804L112.948 20.1221H108.092L102.027 31.252L95.8248 20.1221H91.1047Z" fill="#222222"/>
<path d="M81.1258 20.1221H76.8997V39.8804H81.1258V20.1221Z" fill="#222222"/>
<path d="M50.2856 29.0044H46.0593V39.8804H67.9978V35.9312L50.2856 35.9344V29.0044Z" fill="#222222"/>
<path d="M152.51 20.1221H151.849H147.578V39.8804H151.849V25.7538L164.575 39.8804H165.379H169.65L152.51 20.1221Z" fill="#222222"/>
<path d="M48.1739 24.3569C49.34 24.3569 50.2853 23.409 50.2853 22.2395C50.2853 21.0701 49.34 20.1221 48.1739 20.1221C47.0076 20.1221 46.0623 21.0701 46.0623 22.2395C46.0623 23.409 47.0076 24.3569 48.1739 24.3569Z" fill="#222222"/>
<path d="M167.538 24.3569C168.704 24.3569 169.65 23.409 169.65 22.2395C169.65 21.0701 168.704 20.1221 167.538 20.1221C166.372 20.1221 165.427 21.0701 165.427 22.2395C165.427 23.409 166.372 24.3569 167.538 24.3569Z" fill="#222222"/>
</svg>
