<svg width="170" height="60" viewBox="0 0 170 60" fill="none" xmlns="http://www.w3.org/2000/svg">
<path d="M18.8773 10.6984L14.1603 0.581268C13.8976 0.0162049 13.0966 0.0162049 12.8339 0.581268L1.02252 25.9076C-0.126646 28.3742 -0.126646 31.2217 1.02252 33.6883L4.97335 42.161C5.23611 42.7262 6.03704 42.7262 6.2998 42.161L18.8773 15.1936C19.5421 13.7714 19.5421 12.1238 18.8773 10.6984Z" fill="white"/>
<path d="M20.6911 17.4348L8.1136 44.4024C7.44879 45.8277 7.44879 47.4752 8.1136 48.8974L12.8306 59.0146C13.0933 59.5796 13.8942 59.5796 14.157 59.0146L25.9683 33.6884C27.1174 31.2218 27.1174 28.3741 25.9683 25.9076L22.0174 17.4348C21.7547 16.8697 20.9539 16.8697 20.6911 17.4348Z" fill="white"/>
<path d="M137.314 39.6786L126.392 19.9203L115.47 39.6786H120.327L126.392 28.5487L132.594 39.6786H137.314Z" fill="white"/>
<path d="M91.2654 19.9203L102.187 39.6786L113.109 19.9203H108.253L102.187 31.0502L95.9854 19.9203H91.2654Z" fill="white"/>
<path d="M81.2864 19.9203H77.0603V39.6786H81.2864V19.9203Z" fill="white"/>
<path d="M50.4463 28.8026H46.22V39.6786H68.1585V35.7294L50.4463 35.7326V28.8026Z" fill="white"/>
<path d="M152.671 19.9203H152.009H147.739V39.6786H152.009V25.552L164.736 39.6786H165.54H169.81L152.671 19.9203Z" fill="white"/>
<path d="M48.3345 24.1551C49.5006 24.1551 50.446 23.2073 50.446 22.0377C50.446 20.8683 49.5006 19.9203 48.3345 19.9203C47.1682 19.9203 46.2229 20.8683 46.2229 22.0377C46.2229 23.2073 47.1682 24.1551 48.3345 24.1551Z" fill="white"/>
<path d="M167.699 24.1551C168.865 24.1551 169.81 23.2073 169.81 22.0377C169.81 20.8683 168.865 19.9203 167.699 19.9203C166.533 19.9203 165.587 20.8683 165.587 22.0377C165.587 23.2073 166.533 24.1551 167.699 24.1551Z" fill="white"/>
</svg>
