<svg width="16" height="20" viewBox="0 0 16 20" fill="none" xmlns="http://www.w3.org/2000/svg">
<g clip-path="url(#clip0_58_141)">
<path d="M6.03172 9.11763C6.83748 10.3564 7.94729 11.3288 9.36115 12.0347L10.1137 11.1156C10.2353 10.9691 10.4026 10.8759 10.6154 10.8359C10.8282 10.796 11.0259 10.8159 11.2083 10.8959C12.4245 11.4819 13.7168 11.8216 15.085 11.9148C15.2979 11.9282 15.4803 12.0047 15.6323 12.1446C15.7844 12.2845 15.8604 12.4543 15.8604 12.6541V15.9508C15.8604 16.1506 15.7882 16.3204 15.6437 16.4603C15.4993 16.6001 15.3207 16.6767 15.1078 16.6901C14.667 16.73 14.2109 16.75 13.7396 16.75C11.9761 16.75 10.2809 16.4503 8.65422 15.8509C7.08832 15.2648 5.70106 14.4423 4.49243 13.3834C3.2838 12.3244 2.34502 11.109 1.6761 9.73701C0.991967 8.31177 0.649902 6.82659 0.649902 5.28147C0.649902 4.86855 0.672707 4.46895 0.718315 4.08267C0.733518 3.89619 0.824736 3.73968 0.991967 3.61314C1.1592 3.4866 1.34923 3.42333 1.56208 3.42333H5.32479C5.55283 3.42333 5.74667 3.48993 5.9063 3.62313C6.06593 3.75633 6.15335 3.91617 6.16855 4.10265C6.27497 5.30145 6.66264 6.43365 7.33157 7.49925C7.42279 7.65909 7.44559 7.83225 7.39998 8.01873C7.35437 8.20521 7.24795 8.35173 7.08072 8.45829L6.03172 9.11763ZM3.88812 8.61813L5.50722 7.61913C5.05114 6.75333 4.73948 5.84757 4.57225 4.90185H2.33742V5.28147C2.33742 6.62679 2.63388 7.91883 3.22679 9.15759C3.8045 10.3564 4.62166 11.4187 5.67826 12.3444C6.73486 13.2701 7.94729 13.9861 9.31555 14.4923C10.7294 15.0117 12.2041 15.2715 13.7396 15.2715H14.1729V13.3134C13.0935 13.1669 12.0597 12.8939 11.0715 12.4943L9.93126 13.9128C9.45997 13.753 9.01149 13.5665 8.58581 13.3534L8.5402 13.3334C7.70404 12.9205 6.9477 12.4177 6.27117 11.8249C5.59464 11.2322 5.02073 10.5695 4.54944 9.83691L4.52664 9.79695C4.28339 9.42399 4.07055 9.03105 3.88812 8.61813Z" fill="#222222"/>
</g>
<defs>
<clipPath id="clip0_58_141">
<rect width="15" height="20" fill="white" transform="matrix(1 0 0 -1 0.649902 20)"/>
</clipPath>
</defs>
</svg>
