<svg width="15" height="18" viewBox="0 0 15 18" fill="none" xmlns="http://www.w3.org/2000/svg">
<path d="M7.39573 15.6511L11.2222 11.5526C11.9249 10.8176 12.3985 9.95073 12.6429 8.95206C12.8873 7.9534 12.8873 6.95872 12.6429 5.96804C12.3985 4.97736 11.9287 4.11052 11.2337 3.36751C10.5387 2.6245 9.72525 2.12117 8.79344 1.85752C7.86164 1.59388 6.92601 1.59388 5.98657 1.85752C5.04713 2.12117 4.22989 2.6245 3.53485 3.36751C2.83981 4.11052 2.37009 4.97736 2.12568 5.96804C1.88128 6.95872 1.88128 7.9534 2.12568 8.95206C2.37009 9.95073 2.84363 10.8176 3.54631 11.5526L7.39573 15.6511ZM7.39573 18L2.44647 12.727C1.54522 11.7683 0.934196 10.6418 0.61341 9.34754C0.3079 8.08522 0.3079 6.8229 0.61341 5.56059C0.934196 4.26631 1.5414 3.13981 2.43501 2.18109C3.32863 1.22237 4.38646 0.575233 5.6085 0.239681C6.79999 -0.0798931 7.98384 -0.0798931 9.16005 0.239681C10.3821 0.575233 11.4399 1.22237 12.3335 2.18109C13.2272 3.13981 13.8344 4.26631 14.1551 5.56059C14.4607 6.8229 14.4607 8.08522 14.1551 9.34754C13.8344 10.6418 13.2233 11.7683 12.3221 12.727L7.39573 18ZM7.39573 9.10786C7.82345 9.10786 8.18624 8.94807 8.48411 8.6285C8.78199 8.30892 8.93092 7.91744 8.93092 7.45406C8.93092 6.99068 8.78199 6.5992 8.48411 6.27963C8.18624 5.96005 7.81963 5.80027 7.38428 5.80027C6.94893 5.80027 6.58231 5.96005 6.28444 6.27963C5.98657 6.5992 5.83763 6.99068 5.83763 7.45406C5.83763 7.91744 5.98657 8.30892 6.28444 8.6285C6.58231 8.94807 6.95274 9.10786 7.39573 9.10786ZM7.39573 10.7617C6.83054 10.7617 6.30735 10.6138 5.82618 10.3182C5.345 10.0226 4.96693 9.62317 4.69197 9.11984C4.41701 8.61651 4.27953 8.06525 4.27953 7.46605C4.27953 6.86684 4.41701 6.31158 4.69197 5.80027C4.96693 5.28895 5.345 4.88549 5.82618 4.58988C6.30735 4.29428 6.82672 4.14647 7.38428 4.14647C7.94183 4.14647 8.4612 4.29428 8.94238 4.58988C9.42356 4.88549 9.80163 5.28895 10.0766 5.80027C10.3515 6.31158 10.489 6.86684 10.489 7.46605C10.489 8.06525 10.3515 8.61651 10.0766 9.11984C9.80163 9.62317 9.42356 10.0226 8.94238 10.3182C8.4612 10.6138 7.94565 10.7617 7.39573 10.7617Z" fill="#222222"/>
</svg>
