<svg width="13" height="17" viewBox="0 0 13 17" fill="none" xmlns="http://www.w3.org/2000/svg">
<path d="M4.76367 2.04004V2.25228C4.76367 2.6108 4.95223 2.9429 5.26009 3.12664L5.3066 3.15439C5.34582 3.17779 5.38771 3.1964 5.43137 3.2098V3.2098C5.67056 3.28321 5.83384 3.50412 5.83384 3.75432V4.72595C5.83384 5.07137 5.99292 5.39753 6.26512 5.61019L6.3514 5.67759C6.49278 5.78804 6.66703 5.84804 6.84643 5.84804V5.84804C7.01436 5.84804 7.17807 5.79546 7.3146 5.69769L7.41335 5.62697C7.72337 5.40495 7.90728 5.04704 7.90728 4.66572V3.78089C7.90728 3.51847 8.08736 3.29033 8.34262 3.2294V3.2294C8.45128 3.20346 8.54985 3.146 8.62597 3.06424L8.65452 3.03357C8.77608 2.90298 8.84367 2.73119 8.84367 2.55277V2.04004" stroke="#222222" stroke-linecap="round"/>
<path d="M3.4043 2.37986H4.31497C4.56313 2.37986 4.7643 2.17869 4.7643 1.93054V1.93054C4.7643 1.82543 4.80115 1.72364 4.86844 1.64289L4.91253 1.58998C5.03404 1.44417 5.21404 1.35986 5.40385 1.35986H8.20475C8.39455 1.35986 8.57455 1.44417 8.69606 1.58998L8.74015 1.64289C8.80745 1.72364 8.8443 1.82543 8.8443 1.93054V1.93054C8.8443 2.17869 9.04547 2.37986 9.29362 2.37986H10.2043" stroke="#222222" stroke-linecap="round"/>
<rect x="1.39759" y="0.714" width="1.428" height="3.468" rx="0.714" fill="#222222" stroke="#222222" stroke-width="1.428"/>
<rect x="10.7824" y="0.714" width="1.428" height="3.468" rx="0.714" fill="#222222" stroke="#222222" stroke-width="1.428"/>
<rect x="1.39759" y="12.818" width="1.428" height="3.468" rx="0.714" fill="#222222" stroke="#222222" stroke-width="1.428"/>
<rect x="10.7824" y="12.818" width="1.428" height="3.468" rx="0.714" fill="#222222" stroke="#222222" stroke-width="1.428"/>
<path d="M3.26758 14.416H10.3396" stroke="#222222" stroke-linecap="round"/>
<path d="M6.80273 14.2801V6.12012" stroke="#222222" stroke-linecap="round"/>
</svg>
